<svg id="b4e47363-6087-4be9-8b71-fbfa58caf6c8" data-name="Desk" xmlns="http://www.w3.org/2000/svg" viewBox="0 0 582.17 303.26">
	<defs>
		<style>
			.\39 0dffde3-6bf3-484d-95d1-9b9c1ba92387,.ed8d74fc-3098-4408-907b-c74627f840b8{fill:transparent;}.\33 efd639f-b7fd-4c57-9e81-84e307a5ff8a,.\37 e170374-e40d-496b-b7cf-ee1854310efa,.\38 876cd72-a766-4c36-a581-75423246c71e,.\39 0dffde3-6bf3-484d-95d1-9b9c1ba92387{stroke:#333;}.\32 d6ef358-98fb-41e4-a9f2-eb73257ca99a,.\33 062d660-877a-4c1f-a278-f52a7d41bd56,.\33 777f6f4-20d0-4b48-a6b6-bf7495973c8b,.\33 efd639f-b7fd-4c57-9e81-84e307a5ff8a,.\37 e170374-e40d-496b-b7cf-ee1854310efa,.\38 876cd72-a766-4c36-a581-75423246c71e,.\39 0dffde3-6bf3-484d-95d1-9b9c1ba92387,.a2e8c92a-dcb7-4ea6-8494-e5e8046c235b,.a4b6da4d-89ae-46aa-ba5c-42a98bb498e3,.a80a9f31-f0fe-4e95-aac6-48592a903d49,.b88aa58b-4b60-4f57-85e6-adbdcce6e83e,.b9968888-b6fa-4c79-b127-b702b48bb096,.ed8d74fc-3098-4408-907b-c74627f840b8{stroke-linecap:round;}.\33 efd639f-b7fd-4c57-9e81-84e307a5ff8a,.\37 f9322d8-040e-4fe4-9820-8cd9de7a5788,.\39 0dffde3-6bf3-484d-95d1-9b9c1ba92387{stroke-miterlimit:10;}.\32 d6ef358-98fb-41e4-a9f2-eb73257ca99a,.\33 777f6f4-20d0-4b48-a6b6-bf7495973c8b,.\39 0dffde3-6bf3-484d-95d1-9b9c1ba92387,.a2e8c92a-dcb7-4ea6-8494-e5e8046c235b,.a4b6da4d-89ae-46aa-ba5c-42a98bb498e3,.a80a9f31-f0fe-4e95-aac6-48592a903d49,.b88aa58b-4b60-4f57-85e6-adbdcce6e83e,.b9968888-b6fa-4c79-b127-b702b48bb096,.ed8d74fc-3098-4408-907b-c74627f840b8{stroke-width:8px;}.light-beam{fill:transparent;stroke:transparent;}.\32 d6ef358-98fb-41e4-a9f2-eb73257ca99a,.\33 062d660-877a-4c1f-a278-f52a7d41bd56,.\33 777f6f4-20d0-4b48-a6b6-bf7495973c8b,.\37 e170374-e40d-496b-b7cf-ee1854310efa,.\38 876cd72-a766-4c36-a581-75423246c71e,.a2e8c92a-dcb7-4ea6-8494-e5e8046c235b,.a4b6da4d-89ae-46aa-ba5c-42a98bb498e3,.a80a9f31-f0fe-4e95-aac6-48592a903d49,.b88aa58b-4b60-4f57-85e6-adbdcce6e83e,.b9968888-b6fa-4c79-b127-b702b48bb096,.ed8d74fc-3098-4408-907b-c74627f840b8{stroke-linejoin:round;}.a80a9f31-f0fe-4e95-aac6-48592a903d49,.ed8d74fc-3098-4408-907b-c74627f840b8{stroke:#333;}.\33 777f6f4-20d0-4b48-a6b6-bf7495973c8b,.\37 f9322d8-040e-4fe4-9820-8cd9de7a5788{fill:#999;stroke:#999;}.a80a9f31-f0fe-4e95-aac6-48592a903d49{fill:#333;}.\32 d6ef358-98fb-41e4-a9f2-eb73257ca99a{fill:#ffc715;stroke:#ffc715;}.b9968888-b6fa-4c79-b127-b702b48bb096{fill:#4d4d4d;stroke:#4d4d4d;}.\37 f9322d8-040e-4fe4-9820-8cd9de7a5788{stroke-width:2px;}.\37 e170374-e40d-496b-b7cf-ee1854310efa,.a4b6da4d-89ae-46aa-ba5c-42a98bb498e3{fill:#e5b887;}.a4b6da4d-89ae-46aa-ba5c-42a98bb498e3{stroke:#e5b887;}.b88aa58b-4b60-4f57-85e6-adbdcce6e83e{fill:#312600;stroke:#312600;}.\33 062d660-877a-4c1f-a278-f52a7d41bd56{fill:#ed1e79;stroke:#ed1e79;}.\33 062d660-877a-4c1f-a278-f52a7d41bd56,.\33 efd639f-b7fd-4c57-9e81-84e307a5ff8a,.\37 e170374-e40d-496b-b7cf-ee1854310efa,.\38 876cd72-a766-4c36-a581-75423246c71e{stroke-width:4px;}.\33 efd639f-b7fd-4c57-9e81-84e307a5ff8a,.\38 876cd72-a766-4c36-a581-75423246c71e{fill:none;}
		</style>
	</defs>
	<title>
		Doodle of Carol sat at her desk.
	</title>
	<path class="90dffde3-6bf3-484d-95d1-9b9c1ba92387" d="M789.87,430.32L215.7,431" transform="translate(-211.7 -131.72)" />
	<polygon class="a2e8c92a-dcb7-4ea6-8494-e5e8046c235b light-beam" points="140.66 133.66 188.61 251.75 291.88 135.61 169.65 98.58 140.66 133.66" />
	<polyline class="ed8d74fc-3098-4408-907b-c74627f840b8" points="45.97 269.78 30.3 50.28 102.3 74.28" />
	<circle class="3777f6f4-20d0-4b48-a6b6-bf7495973c8b" cx="28.3" cy="53.28" r="4.5" />
	<rect class="a80a9f31-f0fe-4e95-aac6-48592a903d49" x="314.4" y="205.16" width="43.5" height="29" rx="10" ry="10" transform="translate(15.36 -298.51) rotate(41.07)" />
	<rect class="a80a9f31-f0fe-4e95-aac6-48592a903d49" x="330.8" y="204.95" width="43.5" height="58" rx="12" ry="12" transform="translate(28.78 -305.77) rotate(41.07)" />
	<rect class="a80a9f31-f0fe-4e95-aac6-48592a903d49" x="19.46" y="264.95" width="53" height="9.67" rx="4.83" ry="4.83" />
	<rect class="a80a9f31-f0fe-4e95-aac6-48592a903d49" x="4.63" y="275.95" width="82.67" height="15.33" rx="7.67" ry="7.67" />
	<ellipse class="2d6ef358-98fb-41e4-a9f2-eb73257ca99a" cx="382.3" cy="193.78" rx="76.5" ry="58.5" />
	<rect class="b9968888-b6fa-4c79-b127-b702b48bb096" x="292.3" y="174.28" width="180" height="117" rx="12" ry="12" />
	<path class="7f9322d8-040e-4fe4-9820-8cd9de7a5788" d="M584.13,357.38c-0.86-1.73-1.28-2.61-1-3.12,0.51-.95,2.72-1.17,3.75-0.25,1.68,1.51-.07,5.84-1.12,5.88C585.37,359.89,585,359,584.13,357.38Z" transform="translate(-211.7 -131.72)" />
	<path class="7f9322d8-040e-4fe4-9820-8cd9de7a5788" d="M587.88,364.25a5.37,5.37,0,0,0-3.62,1.75c-1,1.32-.3,2.2-1.12,3.88-1.13,2.27-3.07,1.83-4.12,3.75a5.92,5.92,0,0,0,1.38,6.88c1.83,1.37,3.35-.33,7.25.88,2.47,0.76,2.93,1.78,4.38,1.5,2-.39,3.89-2.88,3.5-4.75s-2.45-1.52-4-4.12a7,7,0,0,1-1-4.75c0.45-2.21,2.12-2.85,1.75-3.87S589.33,364.06,587.88,364.25Z" transform="translate(-211.7 -131.72)" />
	<rect class="a4b6da4d-89ae-46aa-ba5c-42a98bb498e3" x="361.77" y="97.3" width="41.06" height="54.97" rx="12" ry="12" />
	<ellipse class="a4b6da4d-89ae-46aa-ba5c-42a98bb498e3" cx="382.3" cy="68.2" rx="46.36" ry="55.21" />
	<path class="b88aa58b-4b60-4f57-85e6-adbdcce6e83e" d="M646.83,200.57c-8.34,3.88-28.31-14.74-33.77-35.76-1.11-4.26-3.93-15.12.66-18.54,6.31-4.7,25.91,5.17,33.77,21.19C653.56,179.82,653.45,197.49,646.83,200.57Z" transform="translate(-211.7 -131.72)" />
	<path class="b88aa58b-4b60-4f57-85e6-adbdcce6e83e" d="M614.74,144.59c1.26,4.2-5.64,10.2-12.21,16a69.15,69.15,0,0,1-16.27,10.53c-22.94,11.1-35.92,17.45-41.06,12.58-6.14-5.82-1.31-24.39,9.27-35.1C573.54,129.28,611.84,134.94,614.74,144.59Z" transform="translate(-211.7 -131.72)" />
	<path class="3062d660-877a-4c1f-a278-f52a7d41bd56" d="M596.82,160.75a69.92,69.92,0,0,0-14,0c-4.95.5-29.85,3.57-32.49,15.52-0.25,1.15-.79,3.59.5,5,3.71,4.05,19.29-3.78,36.78-14.66C590.65,164.74,593.73,162.77,596.82,160.75Z" transform="translate(-211.7 -131.72)" />
	<path class="3efd639f-b7fd-4c57-9e81-84e307a5ff8a" d="M582,237c1.46,0.78,9.16,4.74,17.54,1.61a19.6,19.6,0,0,0,7.1-4.65" transform="translate(-211.7 -131.72)" />
	<path class="7e170374-e40d-496b-b7cf-ee1854310efa" d="M581.93,202.78a7.61,7.61,0,0,0-7.36-4.26,8.05,8.05,0,0,0-6.15,4.29" transform="translate(-211.7 -131.72)" />
	<path class="7e170374-e40d-496b-b7cf-ee1854310efa" d="M618,204.42a7.61,7.61,0,0,0-7.58-3.86,8.05,8.05,0,0,0-5.91,4.61" transform="translate(-211.7 -131.72)" />
	<path class="8876cd72-a766-4c36-a581-75423246c71e" d="M593.5,212c-5.73,1.82-8.36,6.07-7.5,8.5s5.14,3,5.5,3" transform="translate(-211.7 -131.72)" />
</svg>
