<svg id="e9155571-4774-4b03-b0ca-0a87e5e2fb85" data-name="Head" xmlns="http://www.w3.org/2000/svg" viewBox="0 0 117.42 127.41"><defs><style>.\31 53c32f5-04cb-45b4-ae14-29be3a5a60d6,.\32 7cb711c-5052-4ea3-bbdc-4392fbb1f2b7{fill:#e5b887;}.\32 7cb711c-5052-4ea3-bbdc-4392fbb1f2b7{stroke:#e5b887;}.\31 53c32f5-04cb-45b4-ae14-29be3a5a60d6,.\32 7cb711c-5052-4ea3-bbdc-4392fbb1f2b7,.\32 ac64a2c-c4c2-4357-9776-111403cc233e,.\35 b599eb2-2b14-4825-95ba-db210a6afd3d,.ce15e5b5-4ef8-4d15-85f2-207ee7d61c58,.e83e8511-f97c-4581-877d-62b388121b1c{stroke-linecap:round;}.\31 53c32f5-04cb-45b4-ae14-29be3a5a60d6,.\32 7cb711c-5052-4ea3-bbdc-4392fbb1f2b7,.\32 ac64a2c-c4c2-4357-9776-111403cc233e,.\35 b599eb2-2b14-4825-95ba-db210a6afd3d,.e83e8511-f97c-4581-877d-62b388121b1c{stroke-linejoin:round;}.\32 7cb711c-5052-4ea3-bbdc-4392fbb1f2b7,.\32 ac64a2c-c4c2-4357-9776-111403cc233e{stroke-width:8px;}.\32 ac64a2c-c4c2-4357-9776-111403cc233e{fill:#312600;stroke:#312600;}.\35 b599eb2-2b14-4825-95ba-db210a6afd3d{fill:#ed1e79;stroke:#ed1e79;}.\31 53c32f5-04cb-45b4-ae14-29be3a5a60d6,.\35 b599eb2-2b14-4825-95ba-db210a6afd3d,.ce15e5b5-4ef8-4d15-85f2-207ee7d61c58,.e83e8511-f97c-4581-877d-62b388121b1c{stroke-width:4px;}.ce15e5b5-4ef8-4d15-85f2-207ee7d61c58,.e83e8511-f97c-4581-877d-62b388121b1c{fill:none;}.\31 53c32f5-04cb-45b4-ae14-29be3a5a60d6,.ce15e5b5-4ef8-4d15-85f2-207ee7d61c58,.e83e8511-f97c-4581-877d-62b388121b1c{stroke:#333;}.ce15e5b5-4ef8-4d15-85f2-207ee7d61c58{stroke-miterlimit:10;}</style></defs><title>favicon</title><ellipse class="27cb711c-5052-4ea3-bbdc-4392fbb1f2b7" cx="55.5" cy="68.2" rx="46.36" ry="55.21"/><path class="2ac64a2c-c4c2-4357-9776-111403cc233e" d="M646.83,200.57c-8.34,3.88-28.31-14.74-33.77-35.76-1.11-4.26-3.93-15.12.66-18.54,6.31-4.7,25.91,5.17,33.77,21.19C653.56,179.82,653.45,197.49,646.83,200.57Z" transform="translate(-538.5 -131.72)"/><path class="2ac64a2c-c4c2-4357-9776-111403cc233e" d="M614.74,144.59c1.26,4.2-5.64,10.2-12.21,16a69.15,69.15,0,0,1-16.27,10.53c-22.94,11.1-35.92,17.45-41.06,12.58-6.14-5.82-1.31-24.39,9.27-35.1C573.54,129.28,611.84,134.94,614.74,144.59Z" transform="translate(-538.5 -131.72)"/><path class="5b599eb2-2b14-4825-95ba-db210a6afd3d" d="M596.82,160.75a69.92,69.92,0,0,0-14,0c-4.95.5-29.85,3.57-32.49,15.52-0.25,1.15-.79,3.59.5,5,3.71,4.05,19.29-3.78,36.78-14.66C590.65,164.74,593.73,162.77,596.82,160.75Z" transform="translate(-538.5 -131.72)"/><path class="ce15e5b5-4ef8-4d15-85f2-207ee7d61c58" d="M582,237c1.46,0.78,9.16,4.74,17.54,1.61a19.6,19.6,0,0,0,7.1-4.65" transform="translate(-538.5 -131.72)"/><path class="153c32f5-04cb-45b4-ae14-29be3a5a60d6" d="M581.93,202.78a7.61,7.61,0,0,0-7.36-4.26,8.05,8.05,0,0,0-6.15,4.29" transform="translate(-538.5 -131.72)"/><path class="153c32f5-04cb-45b4-ae14-29be3a5a60d6" d="M618,204.42a7.61,7.61,0,0,0-7.58-3.86,8.05,8.05,0,0,0-5.91,4.61" transform="translate(-538.5 -131.72)"/><path class="e83e8511-f97c-4581-877d-62b388121b1c" d="M593.5,212c-5.73,1.82-8.36,6.07-7.5,8.5s5.14,3,5.5,3" transform="translate(-538.5 -131.72)"/></svg>