<svg xmlns="http://www.w3.org/2000/svg" viewBox="0 0 202.9 193.67">
	<defs>
		<style>
			.cls-1{fill:#7f0e27;}.cls-2{fill:#d99c7d;}.cls-3{fill:#303030;}.cls-4{fill:#fff;}.cls-5{fill:#c66;}
		</style>
	</defs>
	<title>
		my face
	</title>
	<g id="Hair_bottom_Image" data-name="Hair (bottom) Image">
		<path class="cls-1" d="M423.6,308.69c-2.08-1.42-4.19-2.77-6.2-4.26a7.08,7.08,0,0,1-2.72-7.75,15.52,15.52,0,0,1,2.22-5.22,4.68,4.68,0,0,1,3.28-1.77c2.25,0,3.28-.79,3.71-3a84.91,84.91,0,0,1,2.22-8.89c1.22-4,3.94-6.64,8.09-7.17,2.44-.31,3.32-1.84,4.4-3.52s1.7-3,.48-5.09c-1.81-3.15.69-7.43,5-8.77,2-.63,3.45-1.37,3.59-3.65a2.47,2.47,0,0,1,.39-1c1-1.7,1.89-4,4.23-3.43.75.19,1.23,2.9,1.17,4.42-.14,3.15.61,5.66,3.22,7.63,2.07,1.55,3.16,4.34,6.41,4.48.84,0,2.07,1.68,2.28,2.76.42,2.05,1.69,2.69,3.37,3.37a18,18,0,0,1,11.38,17.83,13.33,13.33,0,0,1-15.45,12.45c-2.33-.37-4.58-1.18-6.9-1.57a2.66,2.66,0,0,0-2.29.83c-5.23,10.37-12.61,10.54-21.53,9.46a23.56,23.56,0,0,0-6.44.15A15.8,15.8,0,0,0,423.6,308.69Z" transform="translate(-297.1 -115.55)" />
		<path class="cls-1" d="M339.56,302.65a60.92,60.92,0,0,1-6.33,2.34,13.72,13.72,0,0,1-5.1.35c-3.63-.45-5.75-3.3-4.78-6.81.79-2.84,2.4-5.44,3.52-8.19.63-1.55,1-3.22,1.53-4.79.73-2,1.23-4.24,2.42-6a38.36,38.36,0,0,0,6.45-14.27c.34-1.65,1.13-3.57,3.06-3.12a5.06,5.06,0,0,1,3.14,3.1,33.32,33.32,0,0,1,.86,8.46,5.22,5.22,0,0,0,3.92,5.18,5.17,5.17,0,0,1,3.13,2.84c.74,2.51,2.27,2.8,4.45,3a47.42,47.42,0,0,1,9.25,1.79c2.58.82,3.55,3.12,3.64,5.84a3.15,3.15,0,0,0,1.11,2.27c4,2.5,4.18,7.21-.11,9.23a18.12,18.12,0,0,1-8.92,1.58c-4.07-.36-7.52.09-11.08,2.28C344.78,310.84,341.35,308.91,339.56,302.65Z" transform="translate(-297.1 -115.55)" />
	</g>
	<g id="Face_Image" data-name="Face Image">
		<path class="cls-2" d="M317.8,216.26a170.65,170.65,0,0,1,113.14-57.47A162.86,162.86,0,0,1,451.65,243a72.66,72.66,0,0,1-8.57,29.27A47.31,47.31,0,0,1,422,296.57a43.73,43.73,0,0,1-27.48,7.85,73.3,73.3,0,0,1-36.05-11.07l-17.85-14.27a38.77,38.77,0,0,1-12.85-20.7,90.59,90.59,0,0,1-10-42.12Z" transform="translate(-297.1 -115.55)" />
	</g>
	<g id="Left_eye" data-name="Left eye">
		<path class="cls-3" d="M363,215c2.4,1.48,2.66,3.43,1.7,5s-.3,2.44.06,3.73a16.72,16.72,0,0,1,.82,5.53c-.26,3.63-2.69,6.59-5.34,7.16s-7.27-1.31-8.68-3.42a9.23,9.23,0,0,1,0-9.77c1.48-2.18,3.38-3.76,6.19-3.89a14.9,14.9,0,0,0,2.18-.49c-.61-1.27-1.13-2.34-1.63-3.4,2.07-.22,2.67.39,2.87,2.55a7.61,7.61,0,0,0,.85,2.07,6.71,6.71,0,0,0,1.25-2A12.84,12.84,0,0,0,363,215Z" transform="translate(-297.1 -115.55)" />
		<circle class="cls-4" cx="64.43" cy="110.79" r="1.78" />
	</g>
	<g id="Right_eye" data-name="Right eye">
		<path class="cls-3" d="M421.77,203c2.3,1.73,2.22,3.39,1.67,5.34a8,8,0,0,0-.09,3.17c.18,1.33.77,2.6.91,3.93.4,3.87-1.54,7.44-4.62,8.78-2.22,1-7.31-.55-9.14-2.73-2.17-2.58-2.32-7.23-.33-10.19,1.52-2.27,2.17-2.63,8.38-4.46l-1.62-3.26c1.86-.29,2.71.49,2.91,2.46a9.81,9.81,0,0,0,.72,2.14A9.37,9.37,0,0,0,422,206C422.17,205.35,421.89,204.52,421.77,203Z" transform="translate(-297.1 -115.55)" />
		<circle class="cls-4" cx="123.28" cy="98.25" r="1.78" />
	</g>
	<g id="Nose">
		<path class="cls-3" d="M390.43,245.89c1-1.64.52-4.23,3-3.55,1-1.51,1.76-3,2.77-4.29,1.76-2.3,1.32-3.62-1.41-4.79a57.07,57.07,0,0,1-5.45-3l.29-.94a6.43,6.43,0,0,1,1.81,0c1.76.54,3.49,1.16,5.2,1.82a5.31,5.31,0,0,1,2.87,7.12,16.23,16.23,0,0,1-7.24,7.61C391.89,246.05,391.36,245.89,390.43,245.89Z" transform="translate(-297.1 -115.55)" />
	</g>
	<g id="Mouth">
		<path class="cls-5" d="M414.55,262.47c-1.58,7.27-5.16,12.43-11.17,15.54a10.24,10.24,0,0,1-8.82.64,28.23,28.23,0,0,1-8.93-5.24c-.95-.83-1.72-1.86-3.08-3.35,1.65-.17,2.43-.18,3.18-.35a46.21,46.21,0,0,0,6.72-1.69,22.19,22.19,0,0,1,7.24-1.47c2.07-.11,3.9-2.76,6.09-3.36C408.48,262.45,411.45,262.68,414.55,262.47Z" transform="translate(-297.1 -115.55)" />
	</g>
	<g id="Hair_top_Image" data-name="Hair (top) Image">
		<path class="cls-1" d="M489.66,222.42l10.34-.94a17.34,17.34,0,0,1-1.28,3.4c-3.69,5.61-9.29,8-15.67,8.67s-12.57-.47-17.75-4.57a10.49,10.49,0,0,0-8.88-2.15,52.3,52.3,0,0,1-19.52-.08c-9-1.9-14.19-7.61-14.59-16.84-.23-5.06.39-10.16.63-15.24.11-2.27.33-4.54.31-6.8-.06-4.33-1.3-5.57-5.68-5.21-4.62.37-9.19,1.24-13.8,1.61a78.14,78.14,0,0,1-11.94.28c-7.84-.57-13.46-4.91-17.89-12a11.17,11.17,0,0,0-.11,2c1.24,7.47-.88,14.1-5.34,20s-9.13,11.08-13.45,16.81-8.3,11.91-12.57,17.77c-2.77,3.82-5.78,7.46-8.73,11.15a3.75,3.75,0,0,1-2.41,1.4l6.45-13.37c-4.72,8.17-10.38,15.87-12.84,25.15a5.6,5.6,0,0,0,.63,3.07c1.91,4.89,3.92,9.74,5.82,14.64a10.65,10.65,0,0,1,.44,2.67c.18,1.55-.58,2.21-2.08,2a6.8,6.8,0,0,1-2.36-.55c-2.12-1.19-4.58-2.14-6.18-3.85-11.27-12.12-20.64-25.37-23.37-42.23a55.44,55.44,0,0,1,1.79-25.63c7.49-23.75,18.18-45.73,36.72-63.07a29.93,29.93,0,0,1,6.7-4.59c6.45-3.35,12.9-6.73,19.57-9.61,4.79-2.06,9.92-3.32,14.9-5,1.2-.39,2.42-.77,3.58-1.26A47.87,47.87,0,0,1,407,116.81c2.79.41,5.74-.4,8.62-.56,4.79-.27,9.62-1,14.36-.58,7.9.66,14.08,5,19.34,10.71,5.42,5.87,9.36,12.7,13.06,19.71a11.14,11.14,0,0,0,2.74,2.69c.68.59,1.53,1,2.2,1.6,15.29,13.5,22.56,30.7,22.79,50.86.06,5.12-.71,10.24.14,15.4C490.53,218.35,489.92,220.21,489.66,222.42ZM355.17,197.13l-.7-.39-13.08,23.34.63.35Q348.61,208.79,355.17,197.13Z" transform="translate(-297.1 -115.55)" />
	</g>
</svg>
