<svg xmlns="http://www.w3.org/2000/svg" viewBox="0 0 526.17 457.28">
	<defs>
		<style>
			.cls-1{fill:#daa287;}.cls-2{fill:#7f0e27;}.cls-3{fill:#d99c7d;}.cls-4{fill:#19c6ae;}.cls-5{fill:#fff;}.cls-6{fill:#212eca;}.cls-7{fill:#b33687;}.cls-8{fill:#e6a412;}.cls-9{fill:#f2b3b7;}.cls-10{fill:#303030;}.cls-11{fill:#c66;}
		</style>
	</defs>
	<title>
		Drawing of me, holding my laptop and waving.
	</title>
	<g id="Neck_Image" data-name="Neck Image">
		<path class="cls-1" d="M370.62,293.71l3.84,12.66,3.3,10.9a51.31,51.31,0,0,1,.3,11.47,52.11,52.11,0,0,1-3.87,15.65,82.93,82.93,0,0,1-8.56,15h79.59l-6.78-17.85-8.16-16.09-5-10q-.63-3.33-1.27-6.66-1.5-7.9-3-15.82c-.24-1.55-.48-3.1-.71-4.64Z" transform="translate(-202.99 -115.55)" />
	</g>
	<g id="Hair_bottom_Image" data-name="Hair (bottom) Image">
		<path class="cls-2" d="M423.6,308.69c-2.08-1.42-4.19-2.77-6.2-4.26a7.08,7.08,0,0,1-2.72-7.75,15.52,15.52,0,0,1,2.22-5.22,4.68,4.68,0,0,1,3.28-1.77c2.25,0,3.28-.79,3.71-3a84.91,84.91,0,0,1,2.22-8.89c1.22-4,3.94-6.64,8.09-7.17,2.44-.31,3.32-1.84,4.4-3.52s1.7-3,.48-5.09c-1.81-3.15.69-7.43,5-8.77,2-.63,3.45-1.37,3.59-3.65a2.47,2.47,0,0,1,.39-1c1-1.7,1.89-4,4.23-3.43.75.19,1.23,2.9,1.17,4.42-.14,3.15.61,5.66,3.22,7.63,2.07,1.55,3.16,4.34,6.41,4.48.84,0,2.07,1.68,2.28,2.76.42,2.05,1.69,2.69,3.37,3.37a18,18,0,0,1,11.38,17.83,13.33,13.33,0,0,1-15.45,12.45c-2.33-.37-4.58-1.18-6.9-1.57a2.66,2.66,0,0,0-2.29.83c-5.23,10.37-12.61,10.54-21.53,9.46a23.56,23.56,0,0,0-6.44.15A15.8,15.8,0,0,0,423.6,308.69Z" transform="translate(-202.99 -115.55)" />
		<path class="cls-2" d="M339.56,302.65a60.92,60.92,0,0,1-6.33,2.34,13.72,13.72,0,0,1-5.1.35c-3.63-.45-5.75-3.3-4.78-6.81.79-2.84,2.4-5.44,3.52-8.19.63-1.55,1-3.22,1.53-4.79.73-2,1.23-4.24,2.42-6a38.36,38.36,0,0,0,6.45-14.27c.34-1.65,1.13-3.57,3.06-3.12a5.06,5.06,0,0,1,3.14,3.1,33.32,33.32,0,0,1,.86,8.46,5.22,5.22,0,0,0,3.92,5.18,5.17,5.17,0,0,1,3.13,2.84c.74,2.51,2.27,2.8,4.45,3a47.42,47.42,0,0,1,9.25,1.79c2.58.82,3.55,3.12,3.64,5.84a3.15,3.15,0,0,0,1.11,2.27c4,2.5,4.18,7.21-.11,9.23a18.12,18.12,0,0,1-8.92,1.58c-4.07-.36-7.52.09-11.08,2.28C344.78,310.84,341.35,308.91,339.56,302.65Z" transform="translate(-202.99 -115.55)" />
	</g>
	<g id="Face_Image" data-name="Face Image">
		<path class="cls-3" d="M317.8,216.26a170.65,170.65,0,0,1,113.14-57.47A162.86,162.86,0,0,1,451.65,243a72.66,72.66,0,0,1-8.57,29.27A47.31,47.31,0,0,1,422,296.57a43.73,43.73,0,0,1-27.48,7.85,73.3,73.3,0,0,1-36.05-11.07l-17.85-14.27a38.77,38.77,0,0,1-12.85-20.7,90.59,90.59,0,0,1-10-42.12Z" transform="translate(-202.99 -115.55)" />
	</g>
	<g id="Hand">
		<path class="cls-1" d="M689.23,330.72c.36.68.78,1,1.62,2.22.09.15.17.27.23.35l2.45-1.43a14.8,14.8,0,0,0,4.37-4,29.94,29.94,0,0,0,3-6s.87-2.15,1.61-3.55l.39-.75c.27-.53.39-.8,1.23-2.41.68-1.31.88-1.68,1.17-2.38.14-.33.24-.6.32-.85.33-.95.53-1.63.59-1.81a7.31,7.31,0,0,1,2-3,2.35,2.35,0,0,1,2.52-.28,2.47,2.47,0,0,1,1.23,1.88,2,2,0,0,1-.15,1l-8.89,20.8a.94.94,0,0,0,1.81.42c1.55-3.39,7.67-16.58,10.6-19.76.43-.47,1.38-1.5,2.28-1.28s1.41,2,1.48,2.42l-9.76,22a1.15,1.15,0,0,0,2.11.59l10-19.94a2.12,2.12,0,0,1,3.9,1.41l-11.42,21.35a1.12,1.12,0,0,0,.54.88,1.09,1.09,0,0,0,1.27-.2c2.39-4.17,4-7.3,5.17-9.54a31.21,31.21,0,0,1,3.83-6.11,28.72,28.72,0,0,1,2.29-2.49c.68-.13,1.52-.18,1.93.29.71.79-.22,2.65-1.6,5.37-2.13,4.18-3.2,6.27-4.16,8s-1.91,3.73-4,7.93c-1.37,2.8-3.14,6.49-5.31,8.8-.1.1-.82.86-1.78,1.84-1.2,1.21-2.07,2-2.58,2.52a46.89,46.89,0,0,0-4.91,5c-1.31,1.76-.9,1.82-2.85,4.91a18.58,18.58,0,0,0-1.81,3.62c-.09.25-.15.43-.19.53-.81,2.37-3.7,7.38-11.81,18.32l-14.24-12.28,10.89-13.95.83-4.61a51.05,51.05,0,0,1-3.07-7.53,49.86,49.86,0,0,1-1.81-8.1l2.16-18.37a3.06,3.06,0,0,1,1.47-3,3.22,3.22,0,0,1,3,.06,3.17,3.17,0,0,1,.94.81l.6,2.82a8.29,8.29,0,0,1,.27,2.22c0,1.55-.46,2.17-.24,3.6A4.46,4.46,0,0,0,689.23,330.72Z" transform="translate(-202.99 -115.55)" />
	</g>
	<g id="Top_Image" data-name="Top Image">
		<path class="cls-4" d="M335,347.14l25.61-.85,11.38-.57a58.64,58.64,0,0,0,21.62,8.82,53.76,53.76,0,0,0,23.32.28,25.71,25.71,0,0,0,11.95-5.12,25.07,25.07,0,0,0,5.69-6.26l25.89-.28a144.06,144.06,0,0,1,15.36-2.85,141.64,141.64,0,0,1,21.05-1.13l1.71-5.12a46.75,46.75,0,0,1,13.57-9,35.57,35.57,0,0,1,4.07-2.39,36.22,36.22,0,0,1,13.37-3.7l14.51,1.42a31.87,31.87,0,0,1,16.21,8.25c1.61,2.77,3.25,5.81,4.84,9.1s2.85,6.22,4,9.11a50.83,50.83,0,0,1,1.42,5.69,53.07,53.07,0,0,1,.86,12.8l-4,12.8q-1.7,7-3.41,13.94a146.12,146.12,0,0,0,6.83,19.34c1.83,4.24,3.76,8.12,5.69,11.67A55.58,55.58,0,0,0,592.19,441l4-2.56,5.12-5.12,10-11.38,40.68-41.53c2.36-2.41,12.16-12.39,14.51-14.8a95.06,95.06,0,0,1,35,24.47l-2,4-21.62,30.73-29.58,31.57q-10.11,11-20.2,21.91a94,94,0,0,1-13.66,8.53,95.37,95.37,0,0,1-14.5,6,22.54,22.54,0,0,1-15.08-1.28,112.29,112.29,0,0,1-30.16-17.22,66.1,66.1,0,0,1-20.76-16.21,164.27,164.27,0,0,1-20.2-37.27,3.75,3.75,0,0,0-3.13.29,3.71,3.71,0,0,0-1.71,2.56c1,19,1.62,35.42,2,48.64.64,22.52.68,37.77.68,41.26,0,7.83-.05,14.44-.11,19.34l-198,8.25c-1.59-17.57-2.46-33.51-2.9-47.51-.53-16.72-.47-31.19-.23-42.67.24-11.26.69-21.07,1.14-29a5.83,5.83,0,0,0-3.7-.74c-3.39.59-4.77,4.84-7.49,9.54-2.51,4.35-2.62,2.94-9.57,12-2.45,3.17-5.85,7.77-9.68,13.65-5.76,8.85-3.73,9.77-8.25,16.22a18.84,18.84,0,0,0-3.13,6.26,18.41,18.41,0,0,0-.28,8L308,523.52l3.41,7.4-17.35,31.29-17.92-13.94-11.38-9.39-19.35-21L226.07,498.2,204.16,474a7.14,7.14,0,0,1-1.13-4.55,6.89,6.89,0,0,1,1.13-3.13l7.12-11.95L222.65,437l23.62-31.29q5.07-5.17,10.16-10.34l6.62-6.73v-2.85a27.82,27.82,0,0,1-.86-27.31,39.37,39.37,0,0,1,6.27-11.38,40.63,40.63,0,0,1,10.81-9.39c5.32-3.38,10.49-6.66,17.63-6.54a26.11,26.11,0,0,1,11.1,2.85,35.16,35.16,0,0,1,8.25,6c4,3.65,4,4.85,6.26,6.26S328.49,348.82,335,347.14Z" transform="translate(-202.99 -115.55)" />
	</g>
	<g id="Collar_Image" data-name="Collar Image">
		<path class="cls-5" d="M372,343.73a27.57,27.57,0,0,0,21.62,8.82h20.48a31.55,31.55,0,0,0,21.62-11.1A18,18,0,0,1,444,340a17.64,17.64,0,0,1,5.12,1.14,16.91,16.91,0,0,1,3.11,13.08c-1.15,6.62-5,11.1-7.38,13.66s-5,5.52-9.65,7.46c-6.81,2.87-13.16,1.62-15.95,1.07a31.72,31.72,0,0,1-7.68-2.56,17.78,17.78,0,0,1-6-13.94,19,19,0,0,1-1.14,7.68,15.82,15.82,0,0,1-5.12,7.4,15.42,15.42,0,0,1-6.55,2.85c-3.53.74-6.24.21-10.24-.57-3.68-.72-6.46-1.27-9.68-3.11a25.81,25.81,0,0,1-7.1-6.28,41.15,41.15,0,0,1-7.4-12.8,12,12,0,0,1,2.28-10.81Z" transform="translate(-202.99 -115.55)" />
	</g>
	<g id="Polka_Dot_Image" data-name="Polka Dot Image">
		<circle class="cls-5" cx="363.89" cy="325.05" r="1.78" />
		<circle class="cls-5" cx="386.79" cy="354.42" r="1.78" />
		<circle class="cls-5" cx="333.45" cy="312.74" r="1.78" />
		<circle class="cls-5" cx="444.68" cy="287.71" r="1.78" />
		<circle class="cls-5" cx="427.68" cy="328.6" r="1.78" />
		<circle class="cls-5" cx="479.95" cy="285.93" r="1.78" />
		<circle class="cls-5" cx="350.3" cy="287.71" r="1.78" />
		<circle class="cls-5" cx="309.55" cy="289.49" r="1.78" />
		<circle class="cls-5" cx="331.67" cy="262.68" r="1.78" />
		<circle class="cls-5" cx="323.77" cy="224.44" r="1.78" />
		<circle class="cls-5" cx="299.59" cy="252.36" r="1.78" />
		<circle class="cls-5" cx="270.86" cy="275.4" r="1.78" />
		<circle class="cls-5" cx="88.79" cy="425.89" r="1.78" />
		<circle class="cls-5" cx="76.28" cy="396.31" r="1.78" />
		<circle class="cls-5" cx="44.98" cy="392.75" r="1.78" />
		<circle class="cls-5" cx="213.4" cy="297.95" r="1.78" />
		<circle class="cls-5" cx="179.54" cy="273.63" r="1.78" />
		<circle class="cls-5" cx="142.84" cy="287.71" r="1.78" />
		<circle class="cls-5" cx="137.44" cy="250.58" r="1.78" />
		<circle class="cls-5" cx="105.86" cy="269.71" r="1.78" />
		<circle class="cls-5" cx="87.01" cy="296.17" r="1.78" />
		<circle class="cls-5" cx="87.01" cy="241.78" r="1.78" />
		<circle class="cls-5" cx="48.54" cy="301.86" r="1.78" />
		<circle class="cls-5" cx="59.78" cy="328.6" r="1.78" />
		<circle class="cls-5" cx="19.1" cy="352.64" r="1.78" />
		<circle class="cls-5" cx="48.54" cy="357.97" r="1.78" />
		<circle class="cls-5" cx="141.07" cy="333.51" r="1.78" />
		<circle class="cls-5" cx="150.24" cy="361.53" r="1.78" />
		<circle class="cls-5" cx="186.94" cy="337.07" r="1.78" />
		<circle class="cls-5" cx="252.87" cy="376.96" r="1.78" />
		<circle class="cls-5" cx="257.77" cy="312.74" r="1.78" />
		<circle class="cls-5" cx="283.66" cy="335.29" r="1.78" />
		<circle class="cls-5" cx="215.17" cy="367.01" r="1.78" />
		<circle class="cls-5" cx="219.37" cy="412.88" r="1.78" />
		<circle class="cls-5" cx="289.64" cy="383.79" r="1.78" />
		<circle class="cls-5" cx="133.88" cy="411.1" r="1.78" />
		<circle class="cls-5" cx="175.99" cy="310.96" r="1.78" />
		<circle class="cls-5" cx="185.16" cy="387.35" r="1.78" />
		<circle class="cls-6" cx="240.14" cy="305.42" r="1.78" />
		<circle class="cls-6" cx="174.21" cy="294.39" r="1.78" />
		<circle class="cls-6" cx="161.62" cy="330.38" r="1.78" />
		<circle class="cls-6" cx="133.88" cy="376.96" r="1.78" />
		<circle class="cls-6" cx="174.21" cy="405.91" r="1.78" />
		<circle class="cls-6" cx="219.37" cy="389.94" r="1.78" />
		<circle class="cls-6" cx="179.54" cy="363.31" r="1.78" />
		<circle class="cls-6" cx="215.17" cy="333.51" r="1.78" />
		<circle class="cls-6" cx="251.09" cy="356.2" r="1.78" />
		<circle class="cls-6" cx="261.33" cy="398.09" r="1.78" />
		<circle class="cls-6" cx="287.86" cy="284.15" r="1.78" />
		<circle class="cls-6" cx="276.32" cy="243.56" r="1.78" />
		<circle class="cls-6" cx="344.97" cy="228" r="1.78" />
		<circle class="cls-6" cx="307.77" cy="233.3" r="1.78" />
		<circle class="cls-6" cx="335.22" cy="293.04" r="1.78" />
		<circle class="cls-6" cx="348.52" cy="262.68" r="1.78" />
		<circle class="cls-6" cx="348.52" cy="340.62" r="1.78" />
		<circle class="cls-6" cx="409.69" cy="335.29" r="1.78" />
		<circle class="cls-6" cx="444.68" cy="314.52" r="1.78" />
		<circle class="cls-6" cx="462.03" cy="275.4" r="1.78" />
		<circle class="cls-6" cx="195.83" cy="309.19" r="1.78" />
		<circle class="cls-6" cx="270.86" cy="342.4" r="1.78" />
		<circle class="cls-6" cx="222.93" cy="275.4" r="1.78" />
		<circle class="cls-6" cx="74.5" cy="416.43" r="1.78" />
		<circle class="cls-6" cx="56.22" cy="382.01" r="1.78" />
		<circle class="cls-6" cx="36.09" cy="330.38" r="1.78" />
		<circle class="cls-6" cx="74.5" cy="310.96" r="1.78" />
		<circle class="cls-6" cx="78.05" cy="275.4" r="1.78" />
		<circle class="cls-6" cx="107.64" cy="252.36" r="1.78" />
		<circle class="cls-6" cx="152.02" cy="267.94" r="1.78" />
		<circle class="cls-6" cx="133.88" cy="307.19" r="1.78" />
		<circle class="cls-7" cx="261.33" cy="297.95" r="1.78" />
		<circle class="cls-7" cx="190.49" cy="284.15" r="1.78" />
		<circle class="cls-7" cx="154.92" cy="309.19" r="1.78" />
		<circle class="cls-7" cx="130.33" cy="352.64" r="1.78" />
		<circle class="cls-7" cx="156.7" cy="390.97" r="1.78" />
		<circle class="cls-7" cx="183.38" cy="323.27" r="1.78" />
		<circle class="cls-7" cx="197.61" cy="390.97" r="1.78" />
		<circle class="cls-7" cx="235.02" cy="328.6" r="1.78" />
		<circle class="cls-7" cx="235.02" cy="376.96" r="1.78" />
		<circle class="cls-7" cx="281.39" cy="402.35" r="1.78" />
		<circle class="cls-7" cx="283.66" cy="262.68" r="1.78" />
		<circle class="cls-7" cx="341.41" cy="245.34" r="1.78" />
		<circle class="cls-7" cx="318.94" cy="278.96" r="1.78" />
		<circle class="cls-7" cx="355.07" cy="307.19" r="1.78" />
		<circle class="cls-7" cx="369.01" cy="344.18" r="1.78" />
		<circle class="cls-7" cx="409.69" cy="356.2" r="1.78" />
		<circle class="cls-7" cx="431.24" cy="303.64" r="1.78" />
		<circle class="cls-7" cx="462.03" cy="299.73" r="1.78" />
		<circle class="cls-7" cx="181.6" cy="352.64" r="1.78" />
		<circle class="cls-7" cx="111.2" cy="235.08" r="1.78" />
		<circle class="cls-7" cx="76.28" cy="255.92" r="1.78" />
		<circle class="cls-7" cx="69.31" cy="337.07" r="1.78" />
		<circle class="cls-7" cx="65.75" cy="293.04" r="1.78" />
		<circle class="cls-7" cx="30.76" cy="370.56" r="1.78" />
		<circle class="cls-7" cx="92.35" cy="409.32" r="1.78" />
		<circle class="cls-7" cx="245.26" cy="271.49" r="1.78" />
		<circle class="cls-7" cx="132.1" cy="275.4" r="1.78" />
		<circle class="cls-7" cx="281.39" cy="319.71" r="1.78" />
		<circle class="cls-8" cx="283.66" cy="349.08" r="1.78" />
		<circle class="cls-8" cx="159.84" cy="284.15" r="1.78" />
		<circle class="cls-8" cx="125.06" cy="296.17" r="1.78" />
		<circle class="cls-8" cx="121.51" cy="328.6" r="1.78" />
		<circle class="cls-8" cx="209.84" cy="284.15" r="1.78" />
		<circle class="cls-8" cx="211.62" cy="316.3" r="1.78" />
		<circle class="cls-8" cx="161.62" cy="345.53" r="1.78" />
		<circle class="cls-8" cx="257.77" cy="330.38" r="1.78" />
		<circle class="cls-8" cx="206.99" cy="352.64" r="1.78" />
		<circle class="cls-8" cx="137.44" cy="396.31" r="1.78" />
		<circle class="cls-8" cx="197.61" cy="404.13" r="1.78" />
		<circle class="cls-8" cx="240.14" cy="398.09" r="1.78" />
		<circle class="cls-8" cx="276.32" cy="375.19" r="1.78" />
		<circle class="cls-8" cx="233.24" cy="291.26" r="1.78" />
		<circle class="cls-8" cx="278.1" cy="297.95" r="1.78" />
		<circle class="cls-8" cx="265.68" cy="260.9" r="1.78" />
		<circle class="cls-8" cx="322" cy="241.78" r="1.78" />
		<circle class="cls-8" cx="303.15" cy="269.71" r="1.78" />
		<circle class="cls-8" cx="337" cy="275.4" r="1.78" />
		<circle class="cls-8" cx="344.97" cy="325.05" r="1.78" />
		<circle class="cls-8" cx="370.78" cy="359.75" r="1.78" />
		<circle class="cls-8" cx="388.56" cy="338.84" r="1.78" />
		<circle class="cls-8" cx="427.68" cy="347.31" r="1.78" />
		<circle class="cls-8" cx="416.23" cy="316.3" r="1.78" />
		<circle class="cls-8" cx="468" cy="287.71" r="1.78" />
		<circle class="cls-8" cx="19.1" cy="338.84" r="1.78" />
		<circle class="cls-8" cx="146.4" cy="345.96" r="1.78" />
		<circle class="cls-8" cx="53.87" cy="370.56" r="1.78" />
		<circle class="cls-8" cx="59.78" cy="398.09" r="1.78" />
		<circle class="cls-8" cx="44.98" cy="345.53" r="1.78" />
		<circle class="cls-8" cx="52.09" cy="314.52" r="1.78" />
		<circle class="cls-8" cx="76.28" cy="325.05" r="1.78" />
		<circle class="cls-8" cx="63.97" cy="282.37" r="1.78" />
		<circle class="cls-8" cx="88.79" cy="229.78" r="1.78" />
		<circle class="cls-8" cx="88.79" cy="260.9" r="1.78" />
		<circle class="cls-8" cx="104.08" cy="285.93" r="1.78" />
		<circle class="cls-8" cx="121.51" cy="257.7" r="1.78" />
		<circle class="cls-5" cx="245.26" cy="338.84" r="1.78" />
	</g>
	<g id="Laptop">
		<rect class="cls-9" x="81.97" y="302.73" width="262.7" height="154.55" rx="6" />
	</g>
	<g id="Left_eye" data-name="Left eye">
		<path class="cls-10" d="M363,215c2.4,1.48,2.66,3.43,1.7,5s-.3,2.44.06,3.73a16.72,16.72,0,0,1,.82,5.53c-.26,3.63-2.69,6.59-5.34,7.16s-7.27-1.31-8.68-3.42a9.23,9.23,0,0,1,0-9.77c1.48-2.18,3.38-3.76,6.19-3.89a14.9,14.9,0,0,0,2.18-.49c-.61-1.27-1.13-2.34-1.63-3.4,2.07-.22,2.67.39,2.87,2.55a7.61,7.61,0,0,0,.85,2.07,6.71,6.71,0,0,0,1.25-2A12.84,12.84,0,0,0,363,215Z" transform="translate(-202.99 -115.55)" />
		<circle class="cls-5" cx="158.54" cy="110.79" r="1.78" />
	</g>
	<g id="Right_eye" data-name="Right eye">
		<path class="cls-10" d="M421.77,203c2.3,1.73,2.22,3.39,1.67,5.34a8,8,0,0,0-.09,3.17c.18,1.33.77,2.6.91,3.93.4,3.87-1.54,7.44-4.62,8.78-2.22,1-7.31-.55-9.14-2.73-2.17-2.58-2.32-7.23-.33-10.19,1.52-2.27,2.17-2.63,8.38-4.46l-1.62-3.26c1.86-.29,2.71.49,2.91,2.46a9.81,9.81,0,0,0,.72,2.14A9.37,9.37,0,0,0,422,206C422.17,205.35,421.89,204.52,421.77,203Z" transform="translate(-202.99 -115.55)" />
		<circle class="cls-5" cx="217.39" cy="98.25" r="1.78" />
	</g>
	<g id="Nose">
		<path class="cls-10" d="M390.43,245.89c1-1.64.52-4.23,3-3.55,1-1.51,1.76-3,2.77-4.29,1.76-2.3,1.32-3.62-1.41-4.79a57.07,57.07,0,0,1-5.45-3l.29-.94a6.43,6.43,0,0,1,1.81,0c1.76.54,3.49,1.16,5.2,1.82a5.31,5.31,0,0,1,2.87,7.12,16.23,16.23,0,0,1-7.24,7.61C391.89,246.05,391.36,245.89,390.43,245.89Z" transform="translate(-202.99 -115.55)" />
	</g>
	<g id="Mouth">
		<path class="cls-11" d="M414.55,262.47c-1.58,7.27-5.16,12.43-11.17,15.54a10.24,10.24,0,0,1-8.82.64,28.23,28.23,0,0,1-8.93-5.24c-.95-.83-1.72-1.86-3.08-3.35,1.65-.17,2.43-.18,3.18-.35a46.21,46.21,0,0,0,6.72-1.69,22.19,22.19,0,0,1,7.24-1.47c2.07-.11,3.9-2.76,6.09-3.36C408.48,262.45,411.45,262.68,414.55,262.47Z" transform="translate(-202.99 -115.55)" />
	</g>
	<g id="Hair_top_Image" data-name="Hair (top) Image">
		<path class="cls-2" d="M489.66,222.42l10.34-.94a17.34,17.34,0,0,1-1.28,3.4c-3.69,5.61-9.29,8-15.67,8.67s-12.57-.47-17.75-4.57a10.49,10.49,0,0,0-8.88-2.15,52.3,52.3,0,0,1-19.52-.08c-9-1.9-14.19-7.61-14.59-16.84-.23-5.06.39-10.16.63-15.24.11-2.27.33-4.54.31-6.8-.06-4.33-1.3-5.57-5.68-5.21-4.62.37-9.19,1.24-13.8,1.61a78.14,78.14,0,0,1-11.94.28c-7.84-.57-13.46-4.91-17.89-12a11.17,11.17,0,0,0-.11,2c1.24,7.47-.88,14.1-5.34,20s-9.13,11.08-13.45,16.81-8.3,11.91-12.57,17.77c-2.77,3.82-5.78,7.46-8.73,11.15a3.75,3.75,0,0,1-2.41,1.4l6.45-13.37c-4.72,8.17-10.38,15.87-12.84,25.15a5.6,5.6,0,0,0,.63,3.07c1.91,4.89,3.92,9.74,5.82,14.64a10.65,10.65,0,0,1,.44,2.67c.18,1.55-.58,2.21-2.08,2a6.8,6.8,0,0,1-2.36-.55c-2.12-1.19-4.58-2.14-6.18-3.85-11.27-12.12-20.64-25.37-23.37-42.23a55.44,55.44,0,0,1,1.79-25.63c7.49-23.75,18.18-45.73,36.72-63.07a29.93,29.93,0,0,1,6.7-4.59c6.45-3.35,12.9-6.73,19.57-9.61,4.79-2.06,9.92-3.32,14.9-5,1.2-.39,2.42-.77,3.58-1.26A47.87,47.87,0,0,1,407,116.81c2.79.41,5.74-.4,8.62-.56,4.79-.27,9.62-1,14.36-.58,7.9.66,14.08,5,19.34,10.71,5.42,5.87,9.36,12.7,13.06,19.71a11.14,11.14,0,0,0,2.74,2.69c.68.59,1.53,1,2.2,1.6,15.29,13.5,22.56,30.7,22.79,50.86.06,5.12-.71,10.24.14,15.4C490.53,218.35,489.92,220.21,489.66,222.42ZM355.17,197.13l-.7-.39-13.08,23.34.63.35Q348.61,208.79,355.17,197.13Z" transform="translate(-202.99 -115.55)" />
	</g>
</svg>
