<?xml version="1.0" standalone="no"?>
<!DOCTYPE svg PUBLIC "-//W3C//DTD SVG 20010904//EN"
 "http://www.w3.org/TR/2001/REC-SVG-20010904/DTD/svg10.dtd">
<svg version="1.0" xmlns="http://www.w3.org/2000/svg"
 width="512.000000pt" height="512.000000pt" viewBox="0 0 512.000000 512.000000"
 preserveAspectRatio="xMidYMid meet">
<metadata>
Created by potrace 1.15, written by Peter Selinger 2001-2017
</metadata>
<g transform="translate(0.000000,512.000000) scale(0.100000,-0.100000)"
fill="#000000" stroke="none">
<path d="M2240 5105 c-444 -55 -852 -220 -1220 -493 -150 -112 -400 -362 -512
-512 -276 -372 -439 -779 -494 -1230 -17 -148 -17 -472 0 -620 55 -451 218
-858 494 -1230 112 -150 362 -400 512 -512 372 -276 779 -439 1230 -494 148
-17 472 -17 620 0 451 55 858 218 1230 494 150 112 400 362 512 512 276 372
439 779 494 1230 17 148 17 472 0 620 -55 451 -218 858 -494 1230 -112 150
-362 400 -512 512 -372 276 -779 439 -1230 494 -143 17 -488 16 -630 -1z m637
-314 c740 -109 1374 -570 1703 -1236 157 -319 230 -633 230 -995 -1 -454 -117
-847 -366 -1230 -59 -92 -156 -219 -169 -223 -4 -1 -22 45 -41 103 -144 442
-476 825 -895 1030 -53 26 -112 52 -130 59 l-34 12 30 21 c62 44 214 206 260
278 127 198 183 410 172 646 -21 473 -343 869 -810 996 -71 20 -106 22 -267
22 -208 0 -276 -12 -432 -80 -610 -266 -835 -1019 -474 -1582 45 -71 187 -224
256 -275 l35 -26 -55 -22 c-467 -190 -839 -588 -1000 -1066 -21 -62 -41 -114
-45 -114 -22 0 -193 245 -272 391 -259 478 -333 1077 -199 1607 223 882 957
1546 1860 1683 173 26 468 26 643 1z m-132 -841 c345 -88 585 -396 585 -750 0
-207 -74 -382 -225 -536 -306 -311 -784 -311 -1090 0 -151 154 -225 329 -225
536 0 352 239 660 581 750 103 27 269 27 374 0z m80 -1864 c507 -92 945 -474
1109 -967 34 -101 67 -240 66 -276 -1 -20 -118 -110 -245 -190 -371 -232 -758
-343 -1195 -343 -501 0 -943 148 -1358 454 l-82 61 5 50 c14 120 68 290 136
426 136 273 393 529 662 659 227 109 423 152 667 145 80 -2 186 -10 235 -19z"/>
</g>
</svg>
